<svg id="svg" xmlns="http://www.w3.org/2000/svg" xmlns:xlink="http://www.w3.org/1999/xlink" width="400" height="400" viewBox="0, 0, 400,400" version="1.1"><g id="svgg"><path id="path0" d="M23.047 13.984 C 8.878 20.559,8.938 42.151,23.143 48.623 L 25.000 49.470 25.000 63.969 L 25.000 78.467 38.891 92.359 L 52.783 106.250 88.696 106.252 L 124.609 106.253 126.659 113.263 L 128.709 120.272 124.479 124.502 L 120.248 128.733 112.731 126.476 C 100.865 122.913,99.964 123.226,94.047 132.966 L 91.293 137.500 79.756 137.500 C 68.368 137.500,68.209 137.476,67.373 135.643 C 59.034 117.340,31.284 123.574,31.284 143.750 C 31.284 163.926,59.034 170.160,67.373 151.857 C 68.188 150.070,68.535 150.000,76.590 150.000 L 84.961 150.000 85.430 152.345 C 85.745 153.922,87.966 156.672,92.212 160.743 L 98.525 166.797 97.165 172.435 L 95.804 178.073 87.030 180.113 C 76.757 182.502,75.668 183.360,75.162 189.465 L 74.807 193.750 62.138 193.750 C 49.558 193.750,49.464 193.737,48.623 191.893 C 40.284 173.590,12.534 179.824,12.534 200.000 C 12.534 219.216,36.842 226.203,47.266 209.982 L 49.609 206.335 62.208 206.292 L 74.807 206.250 75.162 210.535 C 75.668 216.640,76.757 217.498,87.030 219.887 L 95.804 221.927 97.165 227.565 L 98.525 233.203 92.212 239.257 C 87.966 243.328,85.745 246.078,85.430 247.655 L 84.961 250.000 76.590 250.000 C 68.535 250.000,68.188 249.930,67.373 248.143 C 58.996 229.757,31.196 236.130,31.267 256.420 C 31.334 275.490,55.653 282.357,66.016 266.232 L 68.359 262.585 79.826 262.542 L 91.293 262.500 94.047 267.034 C 99.964 276.774,100.865 277.087,112.731 273.524 L 120.248 271.267 124.479 275.498 L 128.709 279.728 126.659 286.737 L 124.609 293.747 88.696 293.748 L 52.783 293.750 38.891 307.641 L 25.000 321.533 25.000 336.031 L 25.000 350.530 23.143 351.377 C 4.840 359.716,11.074 387.466,31.250 387.466 C 51.426 387.466,57.660 359.716,39.357 351.377 C 37.530 350.544,37.500 350.355,37.500 339.513 L 37.500 328.495 48.643 317.373 L 59.785 306.250 96.783 306.250 L 133.780 306.250 138.298 308.994 C 140.783 310.504,144.432 312.454,146.408 313.328 L 150.000 314.917 150.000 327.586 L 150.000 340.255 138.857 351.377 L 127.715 362.500 122.967 362.500 C 118.727 362.500,118.129 362.302,117.373 360.643 C 109.044 342.362,81.250 348.600,81.250 368.750 C 81.250 388.900,109.044 395.138,117.373 376.857 C 118.187 375.073,118.542 375.000,126.469 375.000 L 134.717 375.000 148.609 361.109 L 162.500 347.217 162.500 326.489 L 162.500 305.761 164.713 303.641 L 166.926 301.521 172.499 302.858 L 178.073 304.196 180.113 312.970 C 182.502 323.243,183.360 324.332,189.465 324.838 L 193.750 325.193 193.750 337.862 C 193.750 350.442,193.737 350.536,191.893 351.377 C 173.590 359.716,179.824 387.466,200.000 387.466 C 219.216 387.466,226.203 363.158,209.982 352.734 L 206.335 350.391 206.292 337.792 L 206.250 325.193 210.535 324.838 C 216.640 324.332,217.498 323.243,219.887 312.970 L 221.927 304.196 227.501 302.858 L 233.074 301.521 235.287 303.641 L 237.500 305.761 237.500 326.489 L 237.500 347.217 251.391 361.109 L 265.283 375.000 273.462 375.042 L 281.641 375.085 283.984 378.732 C 294.408 394.953,318.716 387.966,318.716 368.750 C 318.716 349.534,294.408 342.547,283.984 358.768 L 281.641 362.415 276.943 362.458 L 272.245 362.500 261.123 351.357 L 250.000 340.215 250.000 327.566 L 250.000 314.917 253.592 313.328 C 255.568 312.454,259.217 310.504,261.702 308.994 L 266.220 306.250 303.237 306.250 L 340.255 306.250 351.377 317.393 L 362.500 328.535 362.500 339.533 C 362.500 350.354,362.470 350.544,360.643 351.377 C 342.257 359.754,348.630 387.554,368.920 387.483 C 388.953 387.413,395.052 359.667,376.857 351.377 L 375.000 350.530 375.000 336.031 L 375.000 321.533 361.109 307.641 L 347.217 293.750 311.304 293.748 L 275.391 293.747 273.341 286.737 L 271.291 279.728 275.521 275.498 L 279.752 271.267 287.269 273.524 C 299.135 277.087,300.036 276.774,305.953 267.034 L 308.707 262.500 320.174 262.542 L 331.641 262.585 333.984 266.232 C 344.408 282.453,368.716 275.466,368.716 256.250 C 368.716 237.034,344.408 230.047,333.984 246.268 L 331.641 249.915 323.340 249.958 L 315.039 250.000 314.570 247.655 C 314.255 246.078,312.034 243.328,307.788 239.257 L 301.475 233.203 302.835 227.565 L 304.196 221.927 312.970 219.887 C 323.243 217.498,324.332 216.640,324.838 210.535 L 325.193 206.250 337.792 206.292 L 350.391 206.335 352.734 209.982 C 363.158 226.203,387.466 219.216,387.466 200.000 C 387.466 179.824,359.716 173.590,351.377 191.893 C 350.536 193.737,350.442 193.750,337.862 193.750 L 325.193 193.750 324.838 189.465 C 324.332 183.360,323.243 182.502,312.970 180.113 L 304.196 178.073 302.835 172.435 L 301.475 166.797 307.788 160.743 C 312.034 156.672,314.255 153.922,314.570 152.345 L 315.039 150.000 323.340 150.042 L 331.641 150.085 333.984 153.732 C 344.408 169.953,368.716 162.966,368.716 143.750 C 368.716 123.574,340.966 117.340,332.627 135.643 C 331.791 137.476,331.632 137.500,320.244 137.500 L 308.707 137.500 305.953 132.966 C 300.036 123.226,299.135 122.913,287.269 126.476 L 279.752 128.733 275.521 124.502 L 271.291 120.272 273.341 113.263 L 275.391 106.253 311.304 106.252 L 347.217 106.250 361.109 92.359 L 375.000 78.467 375.042 64.038 L 375.085 49.609 378.732 47.266 C 394.857 36.903,387.990 12.584,368.920 12.517 C 348.630 12.446,342.257 40.246,360.643 48.623 C 362.470 49.456,362.500 49.645,362.500 60.487 L 362.500 71.505 351.357 82.627 L 340.215 93.750 303.217 93.750 L 266.220 93.750 261.702 91.006 C 259.217 89.496,255.568 87.546,253.592 86.672 L 250.000 85.083 250.000 72.414 L 250.000 59.745 261.143 48.623 L 272.285 37.500 276.963 37.542 L 281.641 37.585 283.984 41.232 C 294.408 57.453,318.716 50.466,318.716 31.250 C 318.716 12.034,294.408 5.047,283.984 21.268 L 281.641 24.915 273.462 24.958 L 265.283 25.000 251.391 38.891 L 237.500 52.783 237.500 73.511 L 237.500 94.239 235.287 96.359 L 233.074 98.479 227.501 97.142 L 221.927 95.804 219.887 87.030 C 217.498 76.757,216.640 75.668,210.535 75.162 L 206.250 74.807 206.292 62.208 L 206.335 49.609 209.982 47.266 C 226.203 36.842,219.216 12.534,200.000 12.534 C 179.824 12.534,173.590 40.284,191.893 48.623 C 193.737 49.464,193.750 49.558,193.750 62.138 L 193.750 74.807 189.465 75.162 C 183.360 75.668,182.502 76.757,180.113 87.030 L 178.073 95.804 172.499 97.142 L 166.926 98.479 164.713 96.359 L 162.500 94.239 162.500 73.511 L 162.500 52.783 148.609 38.891 L 134.717 25.000 126.469 25.000 C 118.542 25.000,118.187 24.927,117.373 23.143 C 109.034 4.840,81.284 11.074,81.284 31.250 C 81.284 51.426,109.034 57.660,117.373 39.357 C 118.130 37.697,118.726 37.500,122.987 37.500 L 127.755 37.500 138.877 48.643 L 150.000 59.785 150.000 72.434 L 150.000 85.083 146.408 86.672 C 144.432 87.546,140.783 89.496,138.298 91.006 L 133.780 93.750 96.763 93.750 L 59.745 93.750 48.623 82.607 L 37.500 71.465 37.542 60.537 L 37.585 49.609 41.232 47.266 C 61.017 34.552,44.372 4.090,23.047 13.984 M35.156 27.344 C 36.024 28.212,36.719 29.948,36.719 31.250 C 36.719 32.552,36.024 34.288,35.156 35.156 C 31.775 38.538,25.781 36.040,25.781 31.250 C 25.781 29.948,26.476 28.212,27.344 27.344 C 28.212 26.476,29.948 25.781,31.250 25.781 C 32.552 25.781,34.288 26.476,35.156 27.344 M103.906 27.344 C 107.288 30.725,104.790 36.719,100.000 36.719 C 96.993 36.719,94.531 34.257,94.531 31.250 C 94.531 28.243,96.993 25.781,100.000 25.781 C 101.302 25.781,103.038 26.476,103.906 27.344 M203.906 27.344 C 207.288 30.725,204.790 36.719,200.000 36.719 C 196.993 36.719,194.531 34.257,194.531 31.250 C 194.531 28.243,196.993 25.781,200.000 25.781 C 201.302 25.781,203.038 26.476,203.906 27.344 M303.906 27.344 C 307.288 30.725,304.790 36.719,300.000 36.719 C 296.993 36.719,294.531 34.257,294.531 31.250 C 294.531 28.243,296.993 25.781,300.000 25.781 C 301.302 25.781,303.038 26.476,303.906 27.344 M372.656 27.344 C 376.038 30.725,373.540 36.719,368.750 36.719 C 365.743 36.719,363.281 34.257,363.281 31.250 C 363.281 28.243,365.743 25.781,368.750 25.781 C 370.052 25.781,371.788 26.476,372.656 27.344 M206.339 88.966 C 206.603 89.234,207.603 92.914,208.561 97.143 C 210.534 105.854,211.646 107.402,216.519 108.216 C 218.391 108.528,223.356 109.801,227.553 111.044 C 237.198 113.901,237.854 113.715,244.676 106.196 L 250.228 100.078 252.653 101.299 C 253.987 101.971,256.519 103.415,258.281 104.510 L 261.483 106.500 259.266 113.601 C 255.828 124.613,255.668 124.105,265.781 134.219 C 275.898 144.336,275.383 144.173,286.437 140.722 L 293.577 138.493 296.791 144.051 L 300.005 149.609 293.841 155.260 C 286.277 162.193,286.102 162.810,288.956 172.447 C 290.199 176.644,291.460 181.540,291.758 183.326 C 292.620 188.489,293.537 189.160,302.831 191.430 L 311.328 193.505 311.328 200.000 L 311.328 206.495 302.831 208.570 C 293.537 210.840,292.620 211.511,291.758 216.674 C 291.460 218.460,290.199 223.356,288.956 227.553 C 286.102 237.190,286.277 237.807,293.841 244.740 L 300.005 250.391 296.791 255.949 L 293.577 261.507 286.437 259.278 C 275.343 255.814,275.831 255.662,265.747 265.747 C 255.662 275.831,255.814 275.343,259.278 286.437 L 261.507 293.577 255.949 296.791 L 250.391 300.005 244.740 293.841 C 237.807 286.277,237.190 286.102,227.553 288.956 C 223.356 290.199,218.460 291.460,216.674 291.758 C 211.511 292.620,210.840 293.537,208.570 302.831 L 206.495 311.328 200.000 311.328 L 193.505 311.328 191.430 302.831 C 189.160 293.537,188.489 292.620,183.326 291.758 C 181.540 291.460,176.644 290.199,172.447 288.956 C 162.810 286.102,162.193 286.277,155.260 293.841 L 149.609 300.005 144.051 296.791 L 138.493 293.577 140.722 286.437 C 144.173 275.383,144.336 275.898,134.219 265.781 C 124.102 255.664,124.617 255.827,113.563 259.278 L 106.423 261.507 103.209 255.949 L 99.995 250.391 106.159 244.740 C 113.723 237.807,113.898 237.190,111.044 227.553 C 109.801 223.356,108.540 218.460,108.242 216.674 C 107.380 211.511,106.463 210.840,97.169 208.570 L 88.672 206.495 88.672 200.000 L 88.672 193.505 97.169 191.430 C 106.463 189.160,107.380 188.489,108.242 183.326 C 108.540 181.540,109.801 176.644,111.044 172.447 C 113.898 162.810,113.723 162.193,106.159 155.260 L 99.995 149.609 103.209 144.051 L 106.423 138.493 113.563 140.722 C 124.617 144.173,124.102 144.336,134.219 134.219 C 144.346 124.092,144.200 124.554,140.741 113.519 L 138.512 106.412 144.061 103.203 L 149.609 99.995 155.260 106.159 C 162.193 113.723,162.810 113.898,172.447 111.044 C 176.644 109.801,181.540 108.540,183.326 108.242 C 188.490 107.380,189.160 106.464,191.426 97.169 L 193.497 88.672 196.553 88.248 C 199.911 87.782,205.583 88.198,206.339 88.966 M179.688 132.414 C 161.357 135.553,148.670 141.821,145.002 149.550 C 143.102 153.554,143.102 252.696,145.002 256.700 C 156.608 281.157,243.392 281.157,254.998 256.700 C 256.898 252.696,256.898 153.554,254.998 149.550 C 248.514 135.887,210.248 127.180,179.688 132.414 M53.906 139.844 C 57.288 143.225,54.790 149.219,50.000 149.219 C 46.993 149.219,44.531 146.757,44.531 143.750 C 44.531 140.743,46.993 138.281,50.000 138.281 C 51.302 138.281,53.038 138.976,53.906 139.844 M353.906 139.844 C 354.774 140.712,355.469 142.448,355.469 143.750 C 355.469 145.052,354.774 146.788,353.906 147.656 C 353.038 148.524,351.302 149.219,350.000 149.219 C 348.698 149.219,346.962 148.524,346.094 147.656 C 345.226 146.788,344.531 145.052,344.531 143.750 C 344.531 142.448,345.226 140.712,346.094 139.844 C 346.962 138.976,348.698 138.281,350.000 138.281 C 351.302 138.281,353.038 138.976,353.906 139.844 M219.099 145.772 C 238.017 148.900,247.161 155.146,239.710 159.850 C 222.222 170.890,176.731 170.827,159.978 159.741 C 146.236 150.646,188.372 140.691,219.099 145.772 M164.269 176.248 C 186.128 183.834,221.120 182.756,242.383 173.843 C 243.958 173.183,244.473 185.470,242.987 188.248 C 235.325 202.565,164.682 202.577,157.021 188.263 C 155.529 185.474,156.037 173.181,157.617 173.842 C 158.369 174.157,161.363 175.239,164.269 176.248 M35.156 196.094 C 38.538 199.475,36.040 205.469,31.250 205.469 C 28.243 205.469,25.781 203.007,25.781 200.000 C 25.781 196.993,28.243 194.531,31.250 194.531 C 32.552 194.531,34.288 195.226,35.156 196.094 M372.656 196.094 C 373.524 196.962,374.219 198.698,374.219 200.000 C 374.219 201.302,373.524 203.038,372.656 203.906 C 371.788 204.774,370.052 205.469,368.750 205.469 C 367.448 205.469,365.712 204.774,364.844 203.906 C 363.976 203.038,363.281 201.302,363.281 200.000 C 363.281 198.698,363.976 196.962,364.844 196.094 C 365.712 195.226,367.448 194.531,368.750 194.531 C 370.052 194.531,371.788 195.226,372.656 196.094 M164.269 207.498 C 186.128 215.084,221.120 214.006,242.383 205.093 C 243.958 204.433,244.473 216.720,242.987 219.498 C 235.325 233.815,164.682 233.827,157.021 219.513 C 155.529 216.724,156.037 204.431,157.617 205.092 C 158.369 205.407,161.363 206.489,164.269 207.498 M164.269 238.748 C 186.128 246.334,221.120 245.256,242.383 236.343 C 243.958 235.683,244.473 247.970,242.987 250.748 C 235.330 265.054,164.676 265.066,157.021 250.763 C 155.529 247.974,156.037 235.681,157.617 236.342 C 158.369 236.657,161.363 237.739,164.269 238.748 M53.906 252.344 C 57.288 255.725,54.790 261.719,50.000 261.719 C 46.993 261.719,44.531 259.257,44.531 256.250 C 44.531 253.243,46.993 250.781,50.000 250.781 C 51.302 250.781,53.038 251.476,53.906 252.344 M353.906 252.344 C 354.774 253.212,355.469 254.948,355.469 256.250 C 355.469 257.552,354.774 259.288,353.906 260.156 C 353.038 261.024,351.302 261.719,350.000 261.719 C 348.698 261.719,346.962 261.024,346.094 260.156 C 345.226 259.288,344.531 257.552,344.531 256.250 C 344.531 254.948,345.226 253.212,346.094 252.344 C 346.962 251.476,348.698 250.781,350.000 250.781 C 351.302 250.781,353.038 251.476,353.906 252.344 M35.156 364.844 C 38.538 368.225,36.040 374.219,31.250 374.219 C 28.243 374.219,25.781 371.757,25.781 368.750 C 25.781 365.743,28.243 363.281,31.250 363.281 C 32.552 363.281,34.288 363.976,35.156 364.844 M103.906 364.844 C 104.774 365.712,105.469 367.448,105.469 368.750 C 105.469 370.052,104.774 371.788,103.906 372.656 C 100.525 376.038,94.531 373.540,94.531 368.750 C 94.531 365.743,96.993 363.281,100.000 363.281 C 101.302 363.281,103.038 363.976,103.906 364.844 M203.906 364.844 C 204.774 365.712,205.469 367.448,205.469 368.750 C 205.469 370.052,204.774 371.788,203.906 372.656 C 203.038 373.524,201.302 374.219,200.000 374.219 C 198.698 374.219,196.962 373.524,196.094 372.656 C 195.226 371.788,194.531 370.052,194.531 368.750 C 194.531 367.448,195.226 365.712,196.094 364.844 C 196.962 363.976,198.698 363.281,200.000 363.281 C 201.302 363.281,203.038 363.976,203.906 364.844 M303.906 364.844 C 304.774 365.712,305.469 367.448,305.469 368.750 C 305.469 370.052,304.774 371.788,303.906 372.656 C 303.038 373.524,301.302 374.219,300.000 374.219 C 298.698 374.219,296.962 373.524,296.094 372.656 C 295.226 371.788,294.531 370.052,294.531 368.750 C 294.531 367.448,295.226 365.712,296.094 364.844 C 296.962 363.976,298.698 363.281,300.000 363.281 C 301.302 363.281,303.038 363.976,303.906 364.844 M372.656 364.844 C 373.524 365.712,374.219 367.448,374.219 368.750 C 374.219 370.052,373.524 371.788,372.656 372.656 C 371.788 373.524,370.052 374.219,368.750 374.219 C 367.448 374.219,365.712 373.524,364.844 372.656 C 363.976 371.788,363.281 370.052,363.281 368.750 C 363.281 367.448,363.976 365.712,364.844 364.844 C 365.712 363.976,367.448 363.281,368.750 363.281 C 370.052 363.281,371.788 363.976,372.656 364.844 " stroke="none" fill="#000000" fill-rule="evenodd"></path></g></svg>