<svg id="svg" xmlns="http://www.w3.org/2000/svg" xmlns:xlink="http://www.w3.org/1999/xlink" width="400" height="400" viewBox="0, 0, 400,400" version="1.1"><g id="svgg"><path id="path0" d="M23.438 12.109 L 23.438 24.219 11.719 24.219 L 0.000 24.219 0.000 212.109 L 0.000 400.000 164.453 400.000 L 328.906 400.000 328.906 394.141 L 328.906 388.281 170.313 388.281 L 11.719 388.281 11.719 373.438 L 11.719 358.594 59.375 358.594 L 107.031 358.594 107.060 340.430 L 107.088 322.266 110.435 320.148 C 115.721 316.802,118.208 311.506,117.847 304.360 C 116.689 281.426,82.847 282.498,82.847 305.469 C 82.847 312.253,89.014 321.875,93.362 321.875 C 94.350 321.875,94.531 323.752,94.531 333.984 L 94.531 346.094 53.125 346.094 L 11.719 346.094 11.719 340.625 L 11.719 335.156 32.813 335.156 L 53.906 335.156 53.906 282.145 L 53.906 229.133 57.239 227.026 C 72.863 217.151,65.116 193.716,46.538 194.654 C 29.161 195.531,23.240 218.796,38.247 227.230 L 41.406 229.006 41.406 275.831 L 41.406 322.656 26.563 322.656 L 11.719 322.656 11.719 179.297 L 11.719 35.938 17.578 35.938 L 23.438 35.938 23.438 47.656 L 23.438 59.375 41.797 59.375 L 60.156 59.375 60.156 47.656 L 60.156 35.938 65.625 35.938 L 71.094 35.938 71.094 47.656 L 71.094 59.375 89.063 59.375 L 107.031 59.375 107.031 47.656 L 107.031 35.938 112.500 35.938 L 117.969 35.938 117.969 47.656 L 117.969 59.375 135.938 59.375 L 153.906 59.375 153.906 47.656 L 153.906 35.938 159.375 35.938 L 164.844 35.938 164.844 30.078 L 164.844 24.219 159.375 24.219 L 153.906 24.219 153.906 12.109 L 153.906 0.000 135.938 0.000 L 117.969 0.000 117.969 12.109 L 117.969 24.219 112.500 24.219 L 107.031 24.219 107.031 12.109 L 107.031 0.000 89.063 0.000 L 71.094 0.000 71.094 12.109 L 71.094 24.219 65.625 24.219 L 60.156 24.219 60.156 12.109 L 60.156 0.000 41.797 0.000 L 23.438 0.000 23.438 12.109 M47.656 29.297 L 47.656 46.875 41.797 46.875 L 35.938 46.875 35.938 29.297 L 35.938 11.719 41.797 11.719 L 47.656 11.719 47.656 29.297 M94.531 29.297 L 94.531 46.875 89.063 46.875 L 83.594 46.875 83.594 29.297 L 83.594 11.719 89.063 11.719 L 94.531 11.719 94.531 29.297 M141.406 29.297 L 141.406 46.875 135.938 46.875 L 130.469 46.875 130.469 29.297 L 130.469 11.719 135.938 11.719 L 141.406 11.719 141.406 29.297 M175.781 30.078 L 175.781 35.938 211.328 35.938 L 246.875 35.938 246.875 47.656 L 246.875 59.375 276.563 59.375 L 306.250 59.375 306.250 47.656 L 306.250 35.938 311.328 35.938 L 316.406 35.938 316.406 47.656 L 316.406 59.375 328.125 59.375 L 339.844 59.375 339.844 103.125 L 339.844 146.875 328.516 146.875 L 317.188 146.875 317.188 141.016 L 317.188 135.156 300.000 135.156 L 282.813 135.156 282.813 126.172 L 282.813 117.188 273.828 117.188 L 264.844 117.188 264.844 100.000 L 264.844 82.813 246.875 82.813 L 228.906 82.813 228.906 100.000 L 228.906 117.188 223.438 117.188 L 217.969 117.188 217.969 100.000 L 217.969 82.813 200.000 82.813 L 182.031 82.813 182.031 100.000 L 182.031 117.188 176.563 117.188 L 171.094 117.188 171.094 100.000 L 171.094 82.813 153.125 82.813 L 135.156 82.813 135.156 100.000 L 135.156 117.188 126.172 117.188 L 117.188 117.188 117.188 126.172 L 117.188 135.156 100.000 135.156 L 82.813 135.156 82.813 153.125 L 82.813 171.094 100.000 171.094 L 117.188 171.094 117.188 176.563 L 117.188 182.031 100.000 182.031 L 82.813 182.031 82.813 200.000 L 82.813 217.969 100.000 217.969 L 117.188 217.969 117.188 223.438 L 117.188 228.906 100.000 228.906 L 82.813 228.906 82.813 246.875 L 82.813 264.844 100.000 264.844 L 117.188 264.844 117.188 273.828 L 117.188 282.813 126.172 282.813 L 135.156 282.813 135.156 300.000 L 135.156 317.188 153.125 317.188 L 171.094 317.188 171.094 300.000 L 171.094 282.813 176.563 282.813 L 182.031 282.813 182.031 300.000 L 182.031 317.188 200.000 317.188 L 217.969 317.188 217.969 300.000 L 217.969 282.813 223.438 282.813 L 228.906 282.813 228.906 300.000 L 228.906 317.188 246.875 317.188 L 264.844 317.188 264.844 300.000 L 264.844 282.813 273.828 282.813 L 282.813 282.813 282.813 273.828 L 282.813 264.844 300.000 264.844 L 317.188 264.844 317.188 246.875 L 317.188 228.906 300.000 228.906 L 282.813 228.906 282.813 223.438 L 282.813 217.969 300.000 217.969 L 317.188 217.969 317.188 200.000 L 317.188 182.031 300.000 182.031 L 282.813 182.031 282.813 176.563 L 282.813 171.094 300.000 171.094 L 317.188 171.094 317.188 165.234 L 317.188 159.375 334.766 159.375 L 352.344 159.375 352.344 109.375 L 352.344 59.375 364.063 59.375 L 375.781 59.375 375.781 47.656 L 375.781 35.938 382.031 35.938 L 388.281 35.938 388.281 191.016 L 388.281 346.094 325.876 346.094 L 263.471 346.094 262.487 343.719 C 255.726 327.397,228.940 334.206,228.911 352.253 C 228.882 369.680,252.656 376.807,261.603 362.054 L 263.672 358.643 325.977 358.618 L 388.281 358.594 388.281 373.438 L 388.281 388.281 375.781 388.281 L 363.281 388.281 363.281 394.141 L 363.281 400.000 381.641 400.000 L 400.000 400.000 400.000 212.109 L 400.000 24.219 287.891 24.219 L 175.781 24.219 175.781 30.078 M293.750 41.406 L 293.750 46.875 276.563 46.875 L 259.375 46.875 259.375 41.406 L 259.375 35.938 276.563 35.938 L 293.750 35.938 293.750 41.406 M363.281 41.406 L 363.281 46.875 346.094 46.875 L 328.906 46.875 328.906 41.406 L 328.906 35.938 346.094 35.938 L 363.281 35.938 363.281 41.406 M23.958 70.833 C 23.672 71.120,23.438 73.932,23.438 77.083 L 23.438 82.813 29.688 82.813 L 35.938 82.813 35.938 76.563 L 35.938 70.313 30.208 70.313 C 27.057 70.313,24.245 70.547,23.958 70.833 M47.656 76.530 L 47.656 82.813 53.939 82.813 L 60.222 82.813 59.994 76.758 L 59.766 70.703 53.711 70.475 L 47.656 70.247 47.656 76.530 M158.594 106.250 L 158.594 117.188 153.125 117.188 L 147.656 117.188 147.656 106.250 L 147.656 95.313 153.125 95.313 L 158.594 95.313 158.594 106.250 M205.469 106.250 L 205.469 117.188 200.000 117.188 L 194.531 117.188 194.531 106.250 L 194.531 95.313 200.000 95.313 L 205.469 95.313 205.469 106.250 M252.344 106.250 L 252.344 117.188 246.875 117.188 L 241.406 117.188 241.406 106.250 L 241.406 95.313 246.875 95.313 L 252.344 95.313 252.344 106.250 M270.313 200.000 L 270.313 270.313 200.000 270.313 L 129.688 270.313 129.688 200.000 L 129.688 129.688 200.000 129.688 L 270.313 129.688 270.313 200.000 M141.406 146.875 L 141.406 153.125 147.656 153.125 L 153.906 153.125 153.906 146.875 L 153.906 140.625 147.656 140.625 L 141.406 140.625 141.406 146.875 M164.583 141.146 C 164.297 141.432,164.063 144.245,164.063 147.396 L 164.063 153.125 170.313 153.125 L 176.563 153.125 176.563 146.875 L 176.563 140.625 170.833 140.625 C 167.682 140.625,164.870 140.859,164.583 141.146 M117.188 153.125 L 117.188 158.594 106.250 158.594 L 95.313 158.594 95.313 153.125 L 95.313 147.656 106.250 147.656 L 117.188 147.656 117.188 153.125 M304.688 153.125 L 304.688 158.594 293.750 158.594 L 282.813 158.594 282.813 153.125 L 282.813 147.656 293.750 147.656 L 304.688 147.656 304.688 153.125 M164.583 164.583 C 164.297 164.870,164.063 173.132,164.063 182.943 L 164.063 200.781 170.313 200.781 L 176.563 200.781 176.563 188.672 L 176.563 176.563 199.609 176.563 L 222.656 176.563 222.656 199.609 L 222.656 222.656 199.609 222.656 L 176.563 222.656 176.563 216.764 L 176.563 210.872 170.508 211.100 L 164.453 211.328 164.237 223.242 L 164.022 235.156 199.589 235.156 L 235.156 235.156 235.156 199.609 L 235.156 164.063 200.130 164.063 C 180.866 164.063,164.870 164.297,164.583 164.583 M188.281 193.717 L 188.281 200.000 194.564 200.000 L 200.847 200.000 200.619 193.945 L 200.391 187.891 194.336 187.662 L 188.281 187.434 188.281 193.717 M117.188 200.000 L 117.188 205.469 106.250 205.469 L 95.313 205.469 95.313 200.000 L 95.313 194.531 106.250 194.531 L 117.188 194.531 117.188 200.000 M304.688 200.000 L 304.688 205.469 293.750 205.469 L 282.813 205.469 282.813 200.000 L 282.813 194.531 293.750 194.531 L 304.688 194.531 304.688 200.000 M51.506 209.090 C 55.580 214.270,48.279 220.307,43.780 215.478 C 41.754 213.302,41.754 210.917,43.780 208.741 C 46.014 206.344,49.468 206.500,51.506 209.090 M117.188 246.875 L 117.188 252.344 106.250 252.344 L 95.313 252.344 95.313 246.875 L 95.313 241.406 106.250 241.406 L 117.188 241.406 117.188 246.875 M304.688 246.875 L 304.688 252.344 293.750 252.344 L 282.813 252.344 282.813 246.875 L 282.813 241.406 293.750 241.406 L 304.688 241.406 304.688 246.875 M158.594 293.750 L 158.594 304.688 153.125 304.688 L 147.656 304.688 147.656 293.750 L 147.656 282.813 153.125 282.813 L 158.594 282.813 158.594 293.750 M205.469 293.750 L 205.469 304.688 200.000 304.688 L 194.531 304.688 194.531 293.750 L 194.531 282.813 200.000 282.813 L 205.469 282.813 205.469 293.750 M252.344 293.750 L 252.344 304.688 246.875 304.688 L 241.406 304.688 241.406 293.750 L 241.406 282.813 246.875 282.813 L 252.344 282.813 252.344 293.750 M103.906 301.563 C 108.352 306.008,102.761 313.294,97.758 309.575 C 95.020 307.541,94.680 304.290,96.951 301.872 C 99.094 299.591,101.814 299.470,103.906 301.563 M250.501 348.867 C 252.583 350.949,252.597 353.941,250.535 356.003 C 245.751 360.787,238.472 353.615,243.105 348.683 C 245.322 346.323,248.024 346.390,250.501 348.867 M339.844 394.141 L 339.844 400.000 346.094 400.000 L 352.344 400.000 352.344 394.141 L 352.344 388.281 346.094 388.281 L 339.844 388.281 339.844 394.141 " stroke="none" fill="#000000" fill-rule="evenodd"></path></g></svg>