<svg id="svg" xmlns="http://www.w3.org/2000/svg" xmlns:xlink="http://www.w3.org/1999/xlink" width="400" height="400" viewBox="0, 0, 400,400" version="1.1"><g id="svgg"><path id="path0" d="M99.131 64.022 C -4.418 132.790,-0.004 129.548,0.005 136.839 C 0.013 143.090,1.256 144.331,20.129 156.909 L 37.325 168.370 19.997 179.898 C 1.027 192.519,-0.003 193.561,0.005 200.121 C 0.013 206.372,1.256 207.612,20.129 220.190 L 37.325 231.651 19.997 243.179 C 1.102 255.750,0.000 256.858,0.000 263.281 C -0.000 270.424,-4.147 267.382,98.822 335.777 L 194.922 399.609 199.635 399.864 L 204.348 400.118 300.814 336.030 C 404.396 267.215,400.004 270.441,399.995 263.161 C 399.987 256.910,398.744 255.669,379.871 243.091 L 362.675 231.630 380.003 220.102 C 398.973 207.481,400.003 206.439,399.995 199.879 C 399.987 193.628,398.744 192.388,379.871 179.810 L 362.675 168.349 380.003 156.821 C 398.898 144.250,400.000 143.142,400.000 136.719 C 400.000 129.573,404.169 132.631,300.903 64.026 L 204.530 -0.000 200.032 -0.000 L 195.534 0.000 99.131 64.022 M283.307 81.678 C 328.573 111.736,365.607 136.504,365.607 136.719 C 365.605 137.355,200.961 246.484,200.003 246.484 C 199.044 246.484,34.395 137.354,34.396 136.719 C 34.396 136.017,199.590 26.585,200.308 26.810 C 200.693 26.930,238.042 51.621,283.307 81.678 M143.801 97.658 C 87.964 134.789,89.844 133.306,89.844 140.234 C 89.844 148.565,97.795 154.355,105.531 151.658 C 106.915 151.175,128.734 137.025,154.018 120.212 L 199.988 89.643 246.037 120.235 C 294.310 152.305,295.123 152.784,300.084 152.119 C 308.575 150.980,313.254 139.851,308.094 133.068 C 307.295 132.017,283.676 115.886,255.607 97.220 L 204.573 63.281 200.034 63.281 L 195.495 63.281 143.801 97.658 M168.310 144.727 C 138.884 164.309,137.500 165.518,137.500 171.639 C 137.500 178.744,141.524 182.987,148.695 183.444 L 153.590 183.756 176.795 168.326 L 200.000 152.897 223.083 168.246 C 250.813 186.683,254.961 187.745,260.942 177.937 C 266.429 168.937,264.137 166.329,231.762 144.727 L 204.540 126.563 200.073 126.563 L 195.605 126.563 168.310 144.727 M127.894 228.516 L 195.564 273.438 200.019 273.438 L 204.473 273.438 272.206 228.467 C 309.459 203.734,340.401 183.607,340.966 183.741 C 342.232 184.041,365.589 199.458,365.599 200.000 C 365.610 200.631,200.966 309.766,200.003 309.766 C 199.037 309.766,34.389 200.629,34.406 200.000 C 34.423 199.337,58.140 183.701,59.213 183.646 C 59.768 183.617,90.675 203.809,127.894 228.516 M127.894 291.797 L 195.564 336.719 200.031 336.719 L 204.498 336.719 272.214 291.748 C 309.458 267.014,340.394 246.887,340.961 247.021 C 342.231 247.322,365.589 262.738,365.598 263.281 C 365.601 263.496,363.726 264.902,361.430 266.406 C 359.134 267.910,321.873 292.650,278.629 321.384 L 200.003 373.628 117.200 318.650 C 71.658 288.412,34.401 263.496,34.406 263.281 C 34.422 262.619,58.140 246.983,59.213 246.927 C 59.768 246.898,90.675 267.090,127.894 291.797 " stroke="none" fill="#000000" fill-rule="evenodd"></path></g></svg>