<svg id="svg" xmlns="http://www.w3.org/2000/svg" xmlns:xlink="http://www.w3.org/1999/xlink" width="400" height="400" viewBox="0, 0, 400,400" version="1.1"><g id="svgg"><path id="path0" d="M33.594 11.036 C 23.715 12.638,13.898 20.166,9.528 29.490 L 7.422 33.984 7.422 150.781 L 7.422 267.578 9.528 272.072 C 12.109 277.581,18.232 284.201,23.292 286.955 C 31.475 291.408,31.442 291.406,90.908 291.406 L 145.550 291.406 145.056 299.414 C 144.212 313.083,140.159 331.948,135.965 341.733 L 134.431 345.312 121.261 345.313 C 106.300 345.313,102.941 346.048,97.795 350.453 C 85.273 361.171,88.928 382.018,104.372 387.975 C 110.342 390.278,289.658 390.278,295.628 387.975 C 313.307 381.156,314.678 355.819,297.817 347.514 C 294.489 345.875,292.771 345.666,279.699 345.313 L 265.258 344.922 263.229 339.844 C 258.632 328.339,255.054 312.091,254.154 298.633 L 253.671 291.406 308.702 291.406 C 368.595 291.406,368.520 291.411,376.708 286.955 C 381.768 284.201,387.891 277.581,390.472 272.072 L 392.578 267.578 392.578 148.047 L 392.578 28.516 390.772 24.849 C 387.065 17.323,380.712 12.565,372.293 11.009 C 366.564 9.950,40.130 9.976,33.594 11.036 M371.484 22.747 C 375.984 23.990,380.106 28.601,381.176 33.587 C 381.769 36.353,382.031 66.434,382.031 131.679 L 382.031 225.781 200.000 225.781 L 17.969 225.781 17.984 135.742 C 17.993 85.732,18.317 43.513,18.713 40.776 C 19.976 32.038,25.929 25.200,34.213 22.970 C 39.197 21.629,366.651 21.412,371.484 22.747 M72.130 29.773 C 50.698 33.674,52.504 65.828,74.223 67.055 C 77.197 67.223,80.767 66.964,82.156 66.480 L 84.683 65.599 98.056 78.893 L 111.429 92.188 127.506 92.188 C 145.183 92.188,144.534 91.999,144.528 97.134 C 144.522 102.446,139.480 107.031,133.646 107.031 C 130.191 107.031,125.901 111.084,125.286 114.928 L 124.800 117.969 119.557 117.969 C 114.794 117.969,114.236 117.798,113.467 116.112 C 104.558 96.558,73.775 105.251,76.950 126.424 C 79.769 145.222,106.101 149.366,113.238 132.135 C 114.737 128.516,124.998 128.255,125.003 131.836 C 125.010 136.891,129.368 140.800,135.937 141.641 C 142.366 142.464,146.537 149.481,143.723 154.739 C 142.963 156.158,141.932 156.250,126.824 156.250 L 110.735 156.250 97.610 169.232 L 84.486 182.214 80.469 181.250 C 57.561 175.755,47.195 208.459,68.962 217.554 C 83.039 223.436,98.235 209.775,94.291 194.783 L 93.227 190.738 104.631 179.354 L 116.035 167.969 127.485 167.969 L 138.935 167.969 140.567 170.609 C 148.026 182.677,159.684 187.958,166.398 182.309 C 172.871 176.862,181.534 180.115,182.592 188.389 C 183.735 197.327,186.768 199.213,200.000 199.213 C 213.232 199.213,216.265 197.327,217.408 188.389 C 218.469 180.087,227.129 176.863,233.644 182.344 C 240.298 187.943,252.015 182.612,259.433 170.609 L 261.065 167.969 272.515 167.969 L 283.965 167.969 295.369 179.354 L 306.773 190.738 305.730 194.758 C 300.030 216.734,331.545 228.798,341.092 208.295 C 348.081 193.284,335.444 177.433,319.531 181.250 L 315.514 182.214 302.390 169.232 L 289.265 156.250 273.176 156.250 C 258.068 156.250,257.037 156.158,256.277 154.739 C 253.463 149.481,257.634 142.464,264.063 141.641 C 270.632 140.800,274.990 136.891,274.997 131.836 C 275.002 128.255,285.263 128.516,286.762 132.135 C 295.662 153.623,328.819 140.786,322.304 118.375 C 317.547 102.012,291.372 100.516,286.356 116.320 C 285.891 117.785,285.239 117.969,280.516 117.969 L 275.200 117.969 274.714 114.928 C 274.099 111.084,269.809 107.031,266.354 107.031 C 260.520 107.031,255.478 102.446,255.472 97.134 C 255.466 91.999,254.817 92.188,272.494 92.188 L 288.571 92.188 301.944 78.893 L 315.317 65.599 317.844 66.480 C 335.982 72.803,351.224 49.968,338.382 35.710 C 325.198 21.072,300.725 33.927,305.709 52.873 L 306.773 56.918 294.979 68.693 L 283.185 80.469 272.089 80.469 C 261.368 80.469,260.962 80.409,260.096 78.711 C 254.560 67.849,240.420 60.302,234.630 65.118 C 226.492 71.888,219.141 69.067,217.175 58.419 C 216.593 55.264,215.775 53.701,213.687 51.758 L 210.960 49.219 200.000 49.219 L 189.040 49.219 186.313 51.758 C 184.225 53.701,183.407 55.264,182.825 58.419 C 180.859 69.067,173.508 71.888,165.370 65.118 C 159.580 60.302,145.440 67.849,139.904 78.711 C 139.038 80.409,138.632 80.469,127.911 80.469 L 116.815 80.469 105.021 68.693 L 93.227 56.918 94.291 52.873 C 97.839 39.387,86.165 27.219,72.130 29.773 M82.262 45.483 C 83.530 48.045,83.555 48.580,82.524 51.049 C 79.485 58.322,68.750 56.287,68.750 48.438 C 68.750 40.694,78.804 38.495,82.262 45.483 M329.278 43.553 C 333.570 47.846,330.483 55.469,324.451 55.469 C 320.759 55.469,318.813 54.248,317.502 51.109 C 314.416 43.723,323.573 37.848,329.278 43.553 M205.862 63.086 C 208.627 77.138,224.827 84.721,237.248 77.778 L 240.934 75.718 244.838 79.622 C 248.534 83.319,248.672 83.602,247.438 84.966 C 238.118 95.265,247.510 117.969,261.091 117.969 L 263.281 117.969 263.280 123.633 L 263.279 129.297 258.788 130.617 C 245.975 134.383,239.972 148.556,246.076 160.632 L 248.403 165.234 244.548 169.097 C 240.908 172.745,240.613 172.888,239.263 171.666 C 234.731 167.565,224.287 166.679,217.535 169.823 C 211.352 172.702,207.607 177.706,205.915 185.352 C 205.451 187.444,205.297 187.500,200.000 187.500 C 194.703 187.500,194.549 187.444,194.085 185.352 C 192.398 177.731,188.986 173.145,182.657 169.991 C 175.933 166.640,165.401 167.445,160.737 171.666 C 159.387 172.888,159.092 172.745,155.452 169.097 L 151.597 165.234 153.992 160.547 C 160.051 148.688,153.952 134.410,141.212 130.630 L 136.721 129.297 136.720 123.633 L 136.719 117.969 138.909 117.969 C 152.490 117.969,161.882 95.265,152.562 84.966 C 151.328 83.602,151.466 83.319,155.162 79.622 L 159.066 75.718 162.752 77.778 C 175.173 84.721,191.373 77.138,194.138 63.086 C 194.551 60.988,194.690 60.938,200.000 60.938 C 205.310 60.938,205.449 60.988,205.862 63.086 M190.339 85.614 C 167.987 91.025,154.953 115.172,162.517 137.158 C 171.686 163.808,206.497 172.403,226.943 153.065 C 256.641 124.979,230.061 76.000,190.339 85.614 M211.117 98.631 C 229.110 106.868,233.488 129.360,219.832 143.410 C 204.540 159.145,178.489 151.950,172.986 130.471 C 167.375 108.570,190.553 89.216,211.117 98.631 M98.269 117.246 C 105.595 119.800,103.823 131.250,96.102 131.250 C 87.626 131.250,85.754 119.881,93.750 116.958 C 95.487 116.323,95.652 116.334,98.269 117.246 M309.139 118.906 C 311.521 121.129,312.083 124.372,310.588 127.264 C 308.183 131.914,302.894 132.702,299.159 128.966 C 292.414 122.222,302.163 112.395,309.139 118.906 M80.320 193.950 C 84.053 197.045,83.920 202.308,80.031 205.366 C 74.081 210.046,65.936 202.811,69.551 196.057 C 71.420 192.564,77.269 191.420,80.320 193.950 M327.359 193.367 C 331.915 195.723,332.667 201.047,328.966 204.748 C 322.907 210.807,313.561 202.917,318.275 195.723 C 320.506 192.317,323.718 191.485,327.359 193.367 M381.863 250.195 C 381.363 267.253,378.967 272.553,369.694 277.107 L 365.234 279.297 200.000 279.297 L 34.766 279.297 30.306 277.107 C 21.033 272.553,18.637 267.253,18.137 250.195 L 17.766 237.500 200.000 237.500 L 382.234 237.500 381.863 250.195 M180.980 254.554 C 179.233 256.484,179.310 261.135,181.116 262.770 C 183.390 264.827,217.144 264.706,219.020 262.634 C 220.767 260.703,220.690 256.053,218.884 254.418 C 216.610 252.360,182.856 252.481,180.980 254.554 M242.452 299.414 C 243.252 312.181,247.040 330.970,250.815 340.903 C 251.656 343.113,252.343 345.010,252.343 345.117 C 252.344 345.225,228.751 345.313,199.916 345.313 C 150.307 345.313,147.517 345.239,148.014 343.945 C 152.005 333.547,155.990 313.490,156.783 299.805 L 157.270 291.406 199.610 291.406 L 241.950 291.406 242.452 299.414 M294.493 359.728 C 300.009 365.014,298.741 373.201,291.894 376.516 C 286.659 379.050,113.341 379.050,108.106 376.516 C 100.009 372.596,100.317 360.623,108.594 357.576 C 109.238 357.339,150.788 357.207,200.925 357.283 L 292.085 357.422 294.493 359.728 " stroke="none" fill="#000000" fill-rule="evenodd"></path></g></svg>