<svg id="svg" xmlns="http://www.w3.org/2000/svg" xmlns:xlink="http://www.w3.org/1999/xlink" width="400" height="400" viewBox="0, 0, 400,400" version="1.1"><g id="svgg"><path id="path0" d="M14.063 14.063 C 12.009 16.116,11.592 70.334,13.609 73.093 C 14.674 74.550,16.260 74.625,54.343 75.000 L 93.969 75.391 94.948 78.708 C 99.884 95.430,122.582 105.425,137.891 97.617 L 141.797 95.625 156.055 109.718 L 170.313 123.812 175.188 118.938 L 180.062 114.063 165.797 99.781 C 155.046 89.019,151.753 85.279,152.430 84.602 C 152.924 84.107,153.961 81.833,154.734 79.547 L 156.139 75.391 170.712 75.000 C 183.983 74.644,185.385 74.474,186.393 73.093 C 188.408 70.332,187.990 16.115,185.937 14.063 C 184.394 12.519,183.333 12.500,100.000 12.500 C 16.667 12.500,15.606 12.519,14.063 14.063 M210.547 13.984 C 206.685 15.776,202.813 19.767,201.211 23.608 C 199.072 28.737,199.407 183.782,201.563 185.938 C 203.358 187.733,208.353 188.067,210.323 186.523 C 211.008 185.986,220.609 175.176,231.658 162.500 C 242.708 149.824,252.673 139.030,253.804 138.512 C 255.346 137.806,270.588 137.557,314.844 137.518 C 380.738 137.460,377.044 137.764,382.578 131.931 C 387.662 126.572,387.500 128.448,387.500 75.000 C 387.500 21.552,387.662 23.428,382.578 18.069 C 376.950 12.137,383.326 12.534,293.750 12.534 C 217.387 12.534,213.527 12.602,210.547 13.984 M175.000 43.774 L 175.000 62.548 165.515 62.329 L 156.029 62.109 155.051 58.792 C 154.513 56.967,152.938 53.707,151.552 51.546 C 137.561 29.744,102.187 34.272,94.948 58.792 L 93.968 62.109 59.484 62.313 L 25.000 62.516 25.000 43.758 L 25.000 25.000 100.000 25.000 L 175.000 25.000 175.000 43.774 M370.280 25.887 C 375.017 27.538,375.000 27.361,375.000 75.000 C 375.000 122.639,375.017 122.462,370.280 124.113 C 368.469 124.744,350.839 125.000,309.114 125.000 C 238.103 125.000,248.971 122.195,228.240 145.871 L 212.891 163.399 212.662 98.301 C 212.412 27.343,212.376 28.003,216.650 26.144 C 219.964 24.703,366.182 24.458,370.280 25.887 M231.250 50.000 L 231.250 56.250 293.750 56.250 L 356.250 56.250 356.250 50.000 L 356.250 43.750 293.750 43.750 L 231.250 43.750 231.250 50.000 M131.861 51.993 C 143.810 56.977,146.771 72.906,137.400 81.796 C 125.995 92.617,107.114 84.607,107.048 68.920 C 106.995 56.084,120.151 47.109,131.861 51.993 M231.250 75.000 L 231.250 81.250 293.750 81.250 L 356.250 81.250 356.250 75.000 L 356.250 68.750 293.750 68.750 L 231.250 68.750 231.250 75.000 M231.250 100.000 L 231.250 106.250 275.000 106.250 L 318.750 106.250 318.750 100.000 L 318.750 93.750 275.000 93.750 L 231.250 93.750 231.250 100.000 M45.313 120.313 C 43.825 121.800,43.750 122.917,43.750 143.528 L 43.750 165.181 29.777 179.270 C 10.361 198.847,12.497 189.785,12.517 252.508 C 12.541 325.479,7.069 318.750,66.381 318.750 L 106.250 318.750 106.250 334.375 L 106.250 350.000 98.438 350.000 C 87.511 350.000,87.500 350.014,87.500 363.306 C 87.500 377.034,89.920 382.245,98.047 386.016 C 102.915 388.275,297.085 388.275,301.953 386.016 C 310.080 382.245,312.500 377.034,312.500 363.306 C 312.500 350.014,312.489 350.000,301.563 350.000 L 293.750 350.000 293.750 337.500 L 293.750 325.000 302.148 324.990 C 378.180 324.897,416.369 229.628,362.121 175.379 C 307.887 121.146,212.603 159.341,212.510 235.352 L 212.500 243.750 200.000 243.750 L 187.500 243.750 187.500 221.844 C 187.500 194.821,188.784 197.985,170.223 179.270 L 156.250 165.181 156.250 143.528 C 156.250 122.917,156.175 121.800,154.688 120.313 C 153.156 118.781,152.083 118.750,100.000 118.750 C 47.917 118.750,46.844 118.781,45.313 120.313 M143.750 170.587 L 143.750 209.923 122.320 219.805 C 110.533 225.241,100.510 229.688,100.047 229.688 C 99.584 229.688,89.540 225.231,77.727 219.785 L 56.250 209.882 56.250 170.566 L 56.250 131.250 100.000 131.250 L 143.750 131.250 143.750 170.587 M68.750 150.000 L 68.750 156.250 100.000 156.250 L 131.250 156.250 131.250 150.000 L 131.250 143.750 100.000 143.750 L 68.750 143.750 68.750 150.000 M320.680 166.031 C 375.907 182.035,392.697 252.497,350.654 291.825 C 302.184 337.164,223.442 300.919,225.997 234.445 C 227.853 186.145,274.294 152.589,320.680 166.031 M68.750 175.000 L 68.750 181.250 100.000 181.250 L 131.250 181.250 131.250 175.000 L 131.250 168.750 100.000 168.750 L 68.750 168.750 68.750 175.000 M43.520 203.615 C 43.365 203.770,40.363 202.591,36.848 200.994 L 30.457 198.091 36.908 191.604 L 43.359 185.117 43.580 194.225 C 43.702 199.235,43.675 203.461,43.520 203.615 M163.178 200.966 C 159.676 202.583,156.684 203.906,156.530 203.906 C 156.376 203.906,156.250 199.607,156.250 194.353 L 156.250 184.800 162.897 191.413 L 169.545 198.026 163.178 200.966 M279.297 188.984 C 268.988 193.768,268.747 194.881,268.767 237.670 C 268.787 280.452,269.095 281.799,279.858 286.289 C 289.452 290.290,292.831 288.786,320.017 268.411 C 344.081 250.375,346.278 248.259,347.745 241.705 C 350.268 230.433,348.001 227.562,320.017 206.589 C 292.588 186.032,289.002 184.481,279.297 188.984 M68.750 200.000 L 68.750 206.250 100.000 206.250 L 131.250 206.250 131.250 200.000 L 131.250 193.750 100.000 193.750 L 68.750 193.750 68.750 200.000 M311.721 217.203 C 334.210 234.051,336.127 235.920,334.524 239.438 C 333.231 242.277,290.337 274.219,287.818 274.219 C 281.461 274.219,281.250 273.038,281.250 237.434 C 281.250 192.284,279.770 193.267,311.721 217.203 M63.421 228.026 C 86.420 238.624,98.391 243.744,100.140 243.732 C 101.844 243.720,115.074 238.008,138.672 227.098 L 174.609 210.481 174.839 254.264 C 175.094 302.775,175.050 303.312,170.679 305.139 C 167.175 306.603,33.884 306.815,29.720 305.363 C 24.970 303.707,25.000 304.034,25.000 254.693 L 25.000 210.116 27.148 211.209 C 28.330 211.811,44.653 219.378,63.421 228.026 M216.007 263.086 C 224.923 291.717,245.854 312.586,274.664 321.568 L 281.250 323.622 281.250 336.811 L 281.250 350.000 200.000 350.000 L 118.750 350.000 118.750 334.375 L 118.750 318.750 146.289 318.733 C 188.134 318.707,187.500 319.295,187.500 280.494 L 187.500 256.250 200.689 256.250 L 213.878 256.250 216.007 263.086 M300.000 365.259 C 300.000 369.684,298.177 373.103,295.280 374.113 C 291.656 375.376,108.344 375.376,104.720 374.113 C 101.823 373.103,100.000 369.684,100.000 365.259 L 100.000 362.500 200.000 362.500 L 300.000 362.500 300.000 365.259 " stroke="none" fill="#000000" fill-rule="evenodd"></path></g></svg>