<svg id="svg" xmlns="http://www.w3.org/2000/svg" xmlns:xlink="http://www.w3.org/1999/xlink" width="400" height="400" viewBox="0, 0, 400,400" version="1.1"><g id="svgg"><path id="path0" d="M16.797 7.734 C 15.078 8.532,12.547 10.370,11.172 11.819 C 5.858 17.420,6.250 5.420,6.250 162.500 C 6.250 319.580,5.858 307.580,11.172 313.181 C 16.755 319.065,11.885 318.714,88.086 318.733 L 156.250 318.750 156.255 326.758 C 156.285 369.329,196.864 401.312,239.681 392.512 C 270.570 386.164,293.723 358.004,293.745 326.758 L 293.750 318.750 336.914 318.733 C 387.677 318.713,387.943 318.659,392.539 307.642 C 394.589 302.726,394.325 21.235,392.266 16.797 C 390.474 12.935,386.483 9.063,382.642 7.461 C 377.718 5.408,21.238 5.673,16.797 7.734 M376.530 19.637 C 381.071 21.220,381.250 22.501,381.250 53.491 L 381.250 81.250 200.000 81.250 L 18.750 81.250 18.750 53.632 C 18.750 23.282,18.958 21.611,22.957 19.871 C 26.235 18.444,372.451 18.215,376.530 19.637 M41.797 32.734 C 27.374 39.426,27.729 61.437,42.358 67.539 C 44.813 68.562,49.893 68.747,75.170 68.733 C 108.522 68.714,108.588 68.704,113.828 63.181 C 122.540 53.998,119.588 38.017,108.203 32.734 C 103.422 30.516,46.578 30.516,41.797 32.734 M229.297 32.734 C 214.874 39.426,215.229 61.437,229.858 67.539 C 232.399 68.598,240.413 68.748,293.920 68.733 C 362.262 68.714,358.279 69.030,363.828 63.181 C 372.540 53.998,369.588 38.017,358.203 32.734 C 353.358 30.486,234.142 30.486,229.297 32.734 M56.250 50.000 L 56.250 56.250 53.491 56.250 C 49.314 56.250,45.454 54.350,44.865 52.005 C 43.619 47.039,46.900 43.848,53.320 43.781 L 56.250 43.750 56.250 50.000 M81.250 50.000 L 81.250 56.250 75.000 56.250 L 68.750 56.250 68.750 50.000 L 68.750 43.750 75.000 43.750 L 81.250 43.750 81.250 50.000 M101.950 44.870 C 109.171 47.887,105.172 56.250,96.509 56.250 L 93.750 56.250 93.750 50.000 L 93.750 43.750 96.509 43.750 C 98.027 43.750,100.476 44.254,101.950 44.870 M351.950 44.870 C 356.706 46.857,356.706 53.143,351.950 55.130 C 347.955 56.799,239.545 56.799,235.550 55.130 C 230.897 53.186,230.792 46.897,235.379 44.903 C 239.165 43.257,348.016 43.226,351.950 44.870 M381.250 196.509 C 381.250 309.567,381.508 303.628,376.530 305.363 C 374.759 305.980,361.786 306.250,333.868 306.250 L 293.750 306.250 293.733 284.961 C 293.714 261.212,293.481 259.950,288.181 254.922 C 283.406 250.392,274.320 248.515,268.279 250.812 C 266.373 251.536,265.843 251.331,263.345 248.897 C 258.495 244.171,249.466 242.209,243.319 244.547 C 241.449 245.257,240.863 245.011,237.876 242.257 C 233.802 238.502,229.974 237.259,223.591 237.618 L 218.747 237.891 218.749 228.320 L 218.750 218.750 269.797 218.750 C 327.694 218.750,326.751 218.837,339.286 212.358 C 378.473 192.105,378.473 132.895,339.286 112.642 C 325.953 105.751,336.829 106.250,200.000 106.250 C 63.171 106.250,74.047 105.751,60.714 112.642 C 21.527 132.895,21.527 192.105,60.714 212.358 C 73.249 218.837,72.306 218.750,130.203 218.750 L 181.250 218.750 181.250 240.998 L 181.250 263.247 177.539 260.893 C 167.487 254.517,153.817 254.592,147.943 261.057 C 141.804 267.812,142.075 273.726,149.195 288.393 C 152.189 294.562,154.871 301.104,155.154 302.930 L 155.668 306.250 90.841 306.250 C 44.487 306.250,25.289 305.997,23.470 305.363 C 18.492 303.628,18.750 309.567,18.750 196.509 L 18.750 93.750 200.000 93.750 L 381.250 93.750 381.250 196.509 M231.250 162.500 L 231.250 206.250 225.000 206.250 L 218.750 206.250 218.750 200.756 C 218.750 188.717,211.593 181.284,200.000 181.284 C 188.386 181.284,181.250 188.714,181.250 200.808 L 181.250 206.353 131.055 206.081 L 80.859 205.810 74.609 203.705 C 30.589 188.879,36.818 124.978,82.813 119.554 C 85.605 119.225,120.146 118.909,159.570 118.853 L 231.250 118.750 231.250 162.500 M316.096 119.490 C 368.366 125.501,368.366 199.499,316.096 205.510 C 312.614 205.911,294.912 206.241,276.758 206.244 L 243.750 206.250 243.750 162.500 L 243.750 118.750 276.758 118.756 C 294.912 118.759,312.614 119.089,316.096 119.490 M277.734 132.548 C 265.680 138.903,265.620 146.086,277.423 169.733 C 288.549 192.021,290.174 193.750,300.000 193.750 C 309.826 193.750,311.451 192.021,322.577 169.733 C 334.412 146.023,334.320 138.683,322.109 132.513 C 318.445 130.662,281.257 130.691,277.734 132.548 M315.965 144.512 C 319.238 145.756,318.452 148.526,310.316 164.416 C 299.645 185.258,300.355 185.258,289.684 164.416 C 281.719 148.859,280.798 145.758,283.789 144.556 C 286.176 143.596,313.459 143.559,315.965 144.512 M203.094 195.296 C 206.119 196.915,206.250 199.344,206.250 253.632 L 206.250 306.250 212.500 306.250 L 218.750 306.250 218.750 281.616 C 218.750 251.473,219.366 249.198,227.005 251.115 C 230.902 252.093,231.250 254.593,231.250 281.616 L 231.250 306.250 237.500 306.250 L 243.750 306.250 243.750 284.741 C 243.750 261.079,244.177 258.323,247.995 257.365 C 255.470 255.489,256.250 258.074,256.250 284.741 L 256.250 306.250 262.500 306.250 L 268.750 306.250 268.750 287.866 C 268.750 267.555,269.276 264.548,272.995 263.615 C 276.407 262.759,278.908 263.875,280.130 266.800 C 281.436 269.927,281.727 316.903,280.517 329.402 C 275.882 377.287,218.106 397.957,185.103 363.538 C 172.634 350.533,168.822 338.525,168.770 312.078 C 168.745 299.454,167.840 295.804,161.688 283.533 C 155.889 271.963,155.777 270.039,160.884 269.675 C 173.058 268.806,180.406 278.335,181.075 295.858 L 181.472 306.250 187.611 306.250 L 193.750 306.250 193.750 253.566 C 193.750 218.855,194.029 200.133,194.566 198.684 C 195.987 194.858,199.596 193.424,203.094 195.296 M31.250 237.500 L 31.250 243.750 81.250 243.750 L 131.250 243.750 131.250 237.500 L 131.250 231.250 81.250 231.250 L 31.250 231.250 31.250 237.500 M306.250 262.500 L 306.250 293.750 337.500 293.750 L 368.750 293.750 368.750 262.500 L 368.750 231.250 337.500 231.250 L 306.250 231.250 306.250 262.500 M356.250 262.500 L 356.250 281.250 337.500 281.250 L 318.750 281.250 318.750 262.500 L 318.750 243.750 337.500 243.750 L 356.250 243.750 356.250 262.500 M31.250 262.500 L 31.250 268.750 81.250 268.750 L 131.250 268.750 131.250 262.500 L 131.250 256.250 81.250 256.250 L 31.250 256.250 31.250 262.500 M31.250 287.500 L 31.250 293.750 81.250 293.750 L 131.250 293.750 131.250 287.500 L 131.250 281.250 81.250 281.250 L 31.250 281.250 31.250 287.500 " stroke="none" fill="#000000" fill-rule="evenodd"></path></g></svg>